<svg width="96" height="96" viewBox="0 0 96 96" fill="none" xmlns="http://www.w3.org/2000/svg">
<path d="M0 0H95.3781V95.3781H0V0Z" fill="white" fill-opacity="0.01"/>
<path d="M21.8575 21.8575L37.7538 37.7538M73.5206 73.5206L57.6243 57.6243" stroke="#DEF7EC" stroke-width="7.94817" stroke-linecap="round" stroke-linejoin="round"/>
<path d="M73.5206 21.8575L57.6243 37.7538M21.8575 73.5206L37.7538 57.6243" stroke="#DEF7EC" stroke-width="7.94817" stroke-linecap="round" stroke-linejoin="round"/>
<path d="M37.7538 37.7538H57.6242V57.6242H37.7538V37.7538Z" fill="#2F88FF" stroke="#DEF7EC" stroke-width="7.94817" stroke-linecap="round" stroke-linejoin="round"/>
<path d="M73.5206 35.7668C76.2717 35.7668 78.9609 34.9511 81.2482 33.4227C83.5355 31.8942 85.3183 29.722 86.3712 27.1804C87.4239 24.6387 87.6994 21.842 87.1627 19.1439C86.626 16.4458 85.3012 13.9674 83.3561 12.0221C81.4108 10.0769 78.9323 8.75214 76.2341 8.21546C73.5361 7.67876 70.7393 7.9542 68.1977 9.00698C65.6561 10.0597 63.4839 11.8425 61.9554 14.1299C60.427 16.4173 59.6113 19.1065 59.6113 21.8575M73.5206 59.6113C76.2717 59.6113 78.9609 60.427 81.2482 61.9554C83.5355 63.4839 85.3183 65.6561 86.3712 68.1977C87.4239 70.7393 87.6994 73.5361 87.1627 76.2341C86.626 78.9323 85.3012 81.4108 83.3561 83.3559C81.4108 85.3012 78.9323 86.626 76.2341 87.1627C73.5361 87.6994 70.7393 87.4239 68.1977 86.3712C65.6561 85.3183 63.4839 83.5355 61.9554 81.2482C60.427 78.9609 59.6113 76.2717 59.6113 73.5206M21.8575 35.7668C19.1065 35.7668 16.4173 34.9511 14.1299 33.4227C11.8425 31.8942 10.0597 29.722 9.00698 27.1804C7.9542 24.6387 7.67876 21.842 8.21546 19.1439C8.75214 16.4458 10.0769 13.9674 12.0221 12.0221C13.9674 10.0769 16.4458 8.75214 19.1439 8.21546C21.842 7.67876 24.6387 7.9542 27.1804 9.00698C29.722 10.0597 31.8942 11.8425 33.4227 14.1299C34.9511 16.4173 35.7668 19.1065 35.7668 21.8575M21.8575 59.6113C19.1065 59.6113 16.4173 60.427 14.1299 61.9554C11.8425 63.4839 10.0597 65.6561 9.00698 68.1977C7.9542 70.7393 7.67876 73.5361 8.21546 76.2341C8.75214 78.9323 10.0769 81.4108 12.0221 83.3559C13.9674 85.3012 16.4458 86.626 19.1439 87.1627C21.842 87.6994 24.6387 87.4239 27.1804 86.3712C29.722 85.3183 31.8942 83.5355 33.4227 81.2482C34.9511 78.9609 35.7668 76.2717 35.7668 73.5206" stroke="#DEF7EC" stroke-width="7.94817" stroke-linecap="round" stroke-linejoin="round"/>
</svg>
